<svg width="20" height="20" viewBox="0 0 20 20" fill="none" xmlns="http://www.w3.org/2000/svg">
<path d="M12.121 6.81815L7.87897 11.0609C7.80734 11.1301 7.7502 11.2128 7.7109 11.3044C7.67159 11.3959 7.6509 11.4943 7.65003 11.5939C7.64917 11.6934 7.66814 11.7922 7.70586 11.8844C7.74357 11.9765 7.79926 12.0603 7.86968 12.1307C7.94009 12.2011 8.02383 12.2568 8.11601 12.2945C8.20818 12.3322 8.30694 12.3512 8.40652 12.3503C8.50611 12.3495 8.60452 12.3288 8.69602 12.2895C8.78753 12.2502 8.87029 12.193 8.93947 12.1214L13.1822 7.8794C13.6042 7.45741 13.8413 6.88507 13.8413 6.28828C13.8413 5.69149 13.6042 5.11915 13.1822 4.69715C12.7602 4.27516 12.1879 4.03809 11.5911 4.03809C10.9943 4.03809 10.422 4.27516 9.99997 4.69715L5.75722 8.9399C5.40178 9.2865 5.11869 9.70022 4.92439 10.1571C4.73009 10.6139 4.62843 11.1048 4.62532 11.6013C4.62221 12.0977 4.71771 12.5898 4.90627 13.0491C5.09483 13.5083 5.37271 13.9256 5.72378 14.2766C6.07486 14.6276 6.49213 14.9054 6.95141 15.0939C7.41069 15.2824 7.90283 15.3779 8.39927 15.3747C8.89572 15.3715 9.38659 15.2698 9.84342 15.0754C10.3002 14.881 10.7139 14.5979 11.0605 14.2424L15.3032 10.0004L16.3637 11.0609L12.121 15.3037C11.6334 15.7912 11.0547 16.1779 10.4177 16.4418C9.78067 16.7056 9.09795 16.8414 8.40847 16.8414C7.719 16.8414 7.03627 16.7056 6.39928 16.4418C5.76229 16.1779 5.1835 15.7912 4.69597 15.3037C4.20844 14.8161 3.82171 14.2373 3.55786 13.6003C3.29401 12.9634 3.1582 12.2806 3.1582 11.5912C3.1582 10.9017 3.29401 10.219 3.55786 9.58196C3.82171 8.94497 4.20844 8.36619 4.69597 7.87865L8.93947 3.63665C9.64673 2.95356 10.594 2.57558 11.5772 2.58413C12.5605 2.59267 13.501 2.98705 14.1963 3.68233C14.8916 4.37761 15.286 5.31816 15.2945 6.3014C15.303 7.28464 14.9251 8.2319 14.242 8.93915L9.99997 13.1834C9.79097 13.3924 9.54286 13.5581 9.26981 13.6712C8.99676 13.7842 8.70412 13.8424 8.40858 13.8424C8.11305 13.8423 7.82041 13.7841 7.54739 13.671C7.27437 13.5578 7.0263 13.392 6.81735 13.183C6.6084 12.974 6.44266 12.7259 6.32959 12.4529C6.21653 12.1798 6.15836 11.8872 6.15839 11.5916C6.15843 11.2961 6.21667 11.0035 6.3298 10.7304C6.44293 10.4574 6.60872 10.2094 6.81772 10.0004L11.0605 5.75765L12.121 6.81815Z" fill="#FDFCFD"/>
</svg>
