<svg width="140" height="28" viewBox="0 0 140 28" fill="none" xmlns="http://www.w3.org/2000/svg">
<path d="M2.9668 21.79C3.85675 21.7901 4.59131 22.0958 5.17285 22.7051C5.75337 23.3144 6.04392 24.0633 6.04395 24.9521C6.04395 25.7903 5.75352 26.5079 5.17285 27.1045C4.59219 27.7011 3.85675 27.9999 2.9668 28C2.17569 28 1.48276 27.7011 0.889648 27.1045C0.296716 26.5079 0 25.7902 0 24.9521C3.06702e-05 24.0634 0.29686 23.3143 0.889648 22.7051C1.48276 22.0957 2.17569 21.79 2.9668 21.79ZM14.6816 0C14.8301 0 14.9343 0.0447917 14.9971 0.133789C15.058 0.222782 15.0898 0.330881 15.0898 0.458008C15.0898 0.61068 15.0589 0.928332 14.9971 1.41016C14.9352 1.89312 14.9043 2.37536 14.9043 2.85742V11.0098C14.9043 11.3401 14.9282 11.6003 14.9785 11.791C15.028 11.9815 15.1139 12.0769 15.2383 12.0771C16.0038 11.5441 16.8017 11.1323 17.6309 10.8398C18.459 10.5484 19.2438 10.4014 19.9854 10.4014C21.2706 10.4014 22.433 10.745 23.4707 11.4307C24.5093 12.1163 25.3302 13.0567 25.9365 14.25C26.5419 15.4441 26.8457 16.7897 26.8457 18.2871C26.8457 20.0652 26.4617 21.6462 25.6963 23.0293C24.9299 24.4142 23.8726 25.4871 22.5264 26.249C21.1794 27.0108 19.6036 27.3916 17.7998 27.3916H17.7969C17.0801 27.3916 16.4189 27.3273 15.8135 27.2002C15.2072 27.0731 14.6572 26.9465 14.1631 26.8203C13.7927 26.6932 13.452 26.5909 13.1426 26.5146C12.8334 26.4384 12.5807 26.4004 12.3828 26.4004C12.1354 26.4004 11.9014 26.4453 11.6787 26.5342C11.456 26.6232 11.245 26.7438 11.0479 26.8955C10.8252 27.0724 10.6521 27.1621 10.5293 27.1621C10.3067 27.1621 10.1407 27.1114 10.0293 27.0098C9.91806 26.9082 9.86244 26.7948 9.8623 26.667C9.8623 26.4381 9.93028 25.9932 10.0664 25.333C10.2016 24.6729 10.2573 23.847 10.2334 22.8564L10.085 5.90527C10.0849 5.24524 9.99221 4.65494 9.80664 4.13379C9.62103 3.61347 9.2317 3.29018 8.63867 3.16211C8.51504 3.13671 8.40982 3.07322 8.32324 2.97168C8.23662 2.87088 8.19336 2.73073 8.19336 2.55273C8.19337 2.42568 8.23052 2.31253 8.30469 2.20996C8.37894 2.10916 8.47693 2.04398 8.60156 2.01855C9.14513 1.91775 9.77542 1.74642 10.4922 1.50488C11.209 1.26425 11.9064 1.01013 12.5869 0.743164C13.2667 0.476172 13.7918 0.279483 14.1631 0.152344C14.4094 0.051659 14.5826 8.43548e-05 14.6816 0ZM95.5098 0C95.6581 4.72585e-05 95.7625 0.044839 95.8252 0.133789C95.8861 0.222739 95.918 0.330988 95.918 0.458008C95.9179 0.610674 95.887 0.928366 95.8252 1.41016C95.7633 1.89312 95.7324 2.37536 95.7324 2.85742V11.0098C95.7324 11.3402 95.7563 11.6003 95.8066 11.791C95.8561 11.9817 95.9418 12.0771 96.0664 12.0771C96.8317 11.5442 97.629 11.1322 98.458 10.8398C99.2862 10.5483 100.072 10.4014 100.813 10.4014C102.099 10.4014 103.261 10.7451 104.299 11.4307C105.337 12.1163 106.158 13.0568 106.765 14.25C107.37 15.4441 107.673 16.7898 107.673 18.2871C107.673 20.0651 107.29 21.6463 106.524 23.0293C105.758 24.4142 104.701 25.4871 103.354 26.249C102.007 27.011 100.431 27.3916 98.627 27.3916H98.624C97.9073 27.3916 97.246 27.3273 96.6406 27.2002C96.0344 27.0731 95.4842 26.9465 94.9902 26.8203C94.62 26.6932 94.28 26.5909 93.9707 26.5146C93.6616 26.4384 93.4089 26.4005 93.2109 26.4004C92.9634 26.4004 92.7286 26.4452 92.5059 26.5342C92.2832 26.6232 92.073 26.7439 91.876 26.8955C91.6532 27.0726 91.4793 27.1621 91.3564 27.1621C91.1339 27.162 90.9678 27.1114 90.8564 27.0098C90.7453 26.9082 90.6896 26.7948 90.6895 26.667C90.6895 26.4381 90.7574 25.9932 90.8936 25.333C91.0287 24.6728 91.0844 23.8471 91.0605 22.8564L90.9121 5.90527C90.9121 5.2452 90.8194 4.65497 90.6338 4.13379C90.4482 3.61346 90.0589 3.29015 89.4658 3.16211C89.3422 3.13664 89.2369 3.07327 89.1504 2.97168C89.0638 2.87088 89.0205 2.73073 89.0205 2.55273C89.0205 2.42578 89.0578 2.31247 89.1318 2.20996C89.206 2.10923 89.3042 2.04402 89.4287 2.01855C89.9722 1.91777 90.6026 1.74638 91.3193 1.50488C92.0362 1.26423 92.7344 1.01016 93.415 0.743164C94.0945 0.476299 94.619 0.279471 94.9902 0.152344C95.2368 0.0515406 95.4108 0 95.5098 0ZM46.9775 10.3994C48.3121 10.3994 49.3749 10.8367 50.166 11.7129C50.957 12.5891 51.3277 13.7509 51.2783 15.1982L51.0928 22.8936C51.0681 23.4783 51.167 23.973 51.3896 24.3789C51.6123 24.7856 51.8835 24.9882 52.2051 24.9883C52.6744 24.9883 53.0822 24.8228 53.4287 24.4932C53.5029 24.417 53.5772 24.3789 53.6514 24.3789C53.775 24.3789 53.8793 24.4171 53.9668 24.4932C54.0534 24.5694 54.0967 24.6717 54.0967 24.7988C54.0966 25.1039 53.8742 25.4974 53.4297 25.9795C52.9595 26.4362 52.4651 26.7858 51.9463 27.0273C51.4275 27.268 50.8828 27.3896 50.3145 27.3896C48.9303 27.3896 47.7801 26.6653 46.8662 25.2178H46.792C45.9761 25.9797 45.2409 26.5327 44.5859 26.876C43.9311 27.2192 43.2327 27.3896 42.4912 27.3896L42.4902 27.3906C41.8229 27.3906 41.2051 27.2251 40.6367 26.8955C40.0675 26.5659 39.6164 26.1337 39.2832 25.6006C38.95 25.0675 38.7832 24.4834 38.7832 23.8477C38.7832 22.9851 39.0482 22.2615 39.5801 21.6768C40.1113 21.0928 40.8969 20.572 41.9355 20.1143L45.2344 18.6289C45.7284 18.4001 46.0321 18.1975 46.1436 18.0195C46.2549 17.8424 46.3105 17.5114 46.3105 17.0283L46.3477 14.8574C46.3724 14.1466 46.2487 13.5816 45.9775 13.1621C45.7053 12.7435 45.2975 12.5332 44.7539 12.5332C44.4323 12.5332 44.1108 12.6034 43.79 12.7432C43.4683 12.883 43.2202 13.0417 43.0479 13.2188C42.9737 13.3204 42.918 13.4413 42.8809 13.5801C42.8437 13.7199 42.8252 13.8669 42.8252 14.0186C42.8252 14.1701 42.8376 14.3553 42.8623 14.5703C42.887 14.7863 42.8994 14.9696 42.8994 15.1221C42.8994 15.2746 42.7017 15.4723 42.3066 15.7129C41.9106 15.9545 41.4534 16.1696 40.9346 16.3604C40.4157 16.5511 39.97 16.6465 39.5996 16.6465C39.4264 16.6464 39.2719 16.5695 39.1367 16.417C39.0008 16.2646 38.9327 16.0743 38.9326 15.8467C38.9326 15.4407 39.0676 15.0406 39.3398 14.6465C39.6112 14.2533 40.057 13.8025 40.6748 13.2939C41.3173 12.7355 42.0218 12.2408 42.7881 11.8086C43.5535 11.3773 44.3135 11.0336 45.0684 10.7793C45.8222 10.526 46.4587 10.3995 46.9775 10.3994ZM82.3467 10.4014C83.4092 10.4014 84.3615 10.6369 85.2021 11.1064C86.0417 11.5768 86.7162 12.2049 87.2227 12.9912C87.7291 13.7785 87.9833 14.6675 87.9834 15.6572C87.9834 16.6471 87.5994 17.1054 86.834 17.1055H79.4189C79.0724 17.1055 78.8191 17.2067 78.6582 17.4102C78.4974 17.6136 78.417 17.9573 78.417 18.4395C78.417 19.4047 78.6271 20.2869 79.0479 21.0869C79.4676 21.8866 80.0355 22.515 80.7529 22.9717C81.4698 23.4285 82.2977 23.6572 83.2373 23.6572C83.9541 23.6572 84.6152 23.518 85.2207 23.2383C85.8261 22.9595 86.4256 22.5788 87.0186 22.0967C87.1166 22.0205 87.2094 21.9502 87.2969 21.8867C87.3834 21.8241 87.4639 21.7911 87.5381 21.791C87.7847 21.791 87.9092 21.9565 87.9092 22.2861C87.9092 22.5658 87.8103 22.9474 87.6123 23.4287C87.3648 24.0633 86.9516 24.6916 86.3711 25.3135C85.7904 25.9365 85.0665 26.4369 84.2012 26.8184C83.3359 27.1988 82.348 27.3906 81.2354 27.3906C79.9007 27.3906 78.7073 27.0284 77.6572 26.3057C76.6062 25.5819 75.7775 24.5908 75.1729 23.334C74.5675 22.0772 74.2647 20.6488 74.2646 19.0488C74.2646 17.4487 74.623 15.9951 75.3398 14.6865C76.0567 13.379 77.0321 12.338 78.2686 11.5625C79.5042 10.788 80.8636 10.4014 82.3467 10.4014ZM34.7041 0.00292969C34.8525 0.00296013 34.9506 0.0477518 35.001 0.136719C35.0505 0.225704 35.0752 0.333829 35.0752 0.460938C35.0752 0.638895 35.0442 0.969274 34.9824 1.45117C34.9206 1.93428 34.8773 2.48051 34.8525 3.08984V24.1562C34.8526 24.7145 34.9947 25.0642 35.2783 25.2041C35.5621 25.344 35.8905 25.4773 36.2617 25.6035C36.5328 25.7051 36.7432 25.8066 36.8916 25.9082C37.04 26.0099 37.1142 26.1628 37.1143 26.3652C37.1143 26.5432 37.0462 26.6766 36.9102 26.7646C36.7741 26.8536 36.5948 26.8984 36.373 26.8984C35.9028 26.8984 35.4394 26.8858 34.9824 26.8604C34.5246 26.8349 34.0797 26.8154 33.6475 26.8027C33.2144 26.79 32.7756 26.7842 32.3311 26.7842C31.9105 26.7842 31.4971 26.7969 31.0898 26.8223C30.6824 26.8477 30.2675 26.8798 29.8477 26.918C29.4269 26.9561 28.9697 26.9746 28.4756 26.9746L28.4746 26.9717C28.2521 26.9716 28.0727 26.9278 27.9375 26.8389C27.8015 26.7499 27.7335 26.6172 27.7334 26.4395C27.7334 26.2369 27.8076 26.0773 27.9561 25.9629C28.1045 25.8485 28.3139 25.753 28.5859 25.6768C28.9572 25.5496 29.2847 25.4104 29.5693 25.2588C29.8531 25.1062 29.9951 24.7635 29.9951 24.2295V5.90723C29.9951 5.22164 29.9024 4.62481 29.7168 4.11719C29.5312 3.60954 29.1287 3.29211 28.5117 3.16406C28.2645 3.11308 28.1406 2.92316 28.1406 2.59277C28.1407 2.26256 28.2521 2.0724 28.4746 2.02148C29.1172 1.89435 29.8101 1.71129 30.5518 1.46973C31.2932 1.22911 31.9978 0.974946 32.665 0.708008C33.3323 0.441059 33.8514 0.244313 34.2227 0.117188C34.4195 0.0410376 34.5805 0.00292969 34.7041 0.00292969ZM127.025 0.00292969C127.174 0.00298667 127.272 0.0477784 127.322 0.136719C127.372 0.225694 127.396 0.333854 127.396 0.460938C127.396 0.638893 127.366 0.969283 127.304 1.45117C127.242 1.93428 127.199 2.48052 127.174 3.08984V24.1562C127.174 24.7146 127.316 25.0643 127.6 25.2041C127.883 25.344 128.212 25.4773 128.583 25.6035C128.854 25.7051 129.064 25.8066 129.213 25.9082C129.361 26.0099 129.435 26.1628 129.436 26.3652C129.436 26.5431 129.367 26.6766 129.231 26.7646C129.095 26.8536 128.916 26.8984 128.694 26.8984C128.224 26.8984 127.761 26.8858 127.304 26.8604C126.846 26.8349 126.401 26.8154 125.969 26.8027C125.536 26.79 125.097 26.7842 124.652 26.7842C124.232 26.7842 123.818 26.7969 123.411 26.8223C123.004 26.8477 122.589 26.8798 122.169 26.918C121.748 26.9561 121.291 26.9746 120.797 26.9746L120.796 26.9717C120.573 26.9717 120.394 26.9277 120.259 26.8389C120.123 26.7499 120.055 26.6172 120.055 26.4395C120.055 26.2369 120.129 26.0773 120.277 25.9629C120.426 25.8486 120.635 25.753 120.907 25.6768C121.278 25.5496 121.606 25.4104 121.891 25.2588C122.174 25.1062 122.316 24.7635 122.316 24.2295V5.90723C122.316 5.22166 122.224 4.6248 122.038 4.11719C121.852 3.60954 121.45 3.29211 120.833 3.16406C120.586 3.11312 120.462 2.92321 120.462 2.59277C120.462 2.2625 120.573 2.07235 120.796 2.02148C121.438 1.89436 122.131 1.71124 122.872 1.46973C123.614 1.22907 124.319 0.975 124.986 0.708008C125.653 0.441139 126.172 0.244309 126.543 0.117188C126.74 0.040904 126.902 0.00292969 127.025 0.00292969ZM137.593 0.00292969C137.741 0.00292969 137.839 0.0478202 137.89 0.136719C137.939 0.225716 137.965 0.333798 137.965 0.460938C137.965 0.638903 137.933 0.96924 137.871 1.45117C137.809 1.93429 137.766 2.4805 137.741 3.08984V24.1562C137.741 24.7146 137.884 25.0643 138.168 25.2041C138.452 25.3439 138.779 25.4773 139.15 25.6035C139.422 25.7052 139.633 25.8065 139.781 25.9082C139.93 26.0099 140.004 26.1629 140.004 26.3652C140.004 26.543 139.936 26.6766 139.8 26.7646C139.664 26.8536 139.484 26.8984 139.262 26.8984C138.792 26.8984 138.328 26.8858 137.871 26.8604C137.413 26.8349 136.969 26.8154 136.537 26.8027C136.104 26.79 135.665 26.7842 135.221 26.7842C134.8 26.7842 134.386 26.7968 133.979 26.8223C133.571 26.8477 133.157 26.8799 132.737 26.918C132.317 26.9561 131.859 26.9746 131.365 26.9746L131.364 26.9717C131.142 26.9717 130.962 26.9277 130.827 26.8389C130.691 26.7499 130.622 26.6172 130.622 26.4395C130.622 26.2369 130.697 26.0773 130.846 25.9629C130.994 25.8486 131.204 25.753 131.476 25.6768C131.847 25.5497 132.174 25.4103 132.458 25.2588C132.742 25.1062 132.885 24.7635 132.885 24.2295V5.90723C132.885 5.22171 132.792 4.62477 132.606 4.11719C132.421 3.60956 132.018 3.29212 131.401 3.16406C131.154 3.11321 131.03 2.92334 131.03 2.59277C131.03 2.26245 131.142 2.07232 131.364 2.02148C132.007 1.89435 132.699 1.71126 133.44 1.46973C134.182 1.2291 134.886 0.974967 135.554 0.708008C136.221 0.441016 136.74 0.244327 137.111 0.117188C137.308 0.0409954 137.469 0.00299962 137.593 0.00292969ZM61.4736 0.00292969C61.6221 0.00292969 61.7201 0.0477457 61.7705 0.136719C61.82 0.225716 61.8447 0.333798 61.8447 0.460938C61.8447 0.66437 61.8138 1.00808 61.752 1.49023C61.6901 1.97322 61.6468 2.50613 61.6221 3.08984L61.6592 17.3369C61.6592 17.6418 61.7706 17.7938 61.9922 17.7939C62.0664 17.7939 62.1601 17.7618 62.2715 17.6982C62.3827 17.6356 62.488 17.5645 62.5869 17.4883C63.5008 16.6756 64.3165 15.8498 65.0342 15.0117C65.751 14.1736 66.233 13.5641 66.4805 13.1836C66.5784 13.0313 66.659 12.9053 66.7217 12.8037C66.7827 12.7029 66.8145 12.6124 66.8145 12.5361C66.8143 12.4091 66.7154 12.2765 66.5176 12.1367C66.3196 11.9978 66.0221 11.9023 65.627 11.8506C65.3302 11.7997 65.1826 11.6595 65.1826 11.4316C65.1827 11.204 65.2755 11.0577 65.4609 10.9941C65.6464 10.9315 65.8249 10.8995 65.998 10.8994H67.8154C68.26 10.8994 68.841 10.8799 69.5576 10.8418C70.2743 10.8037 70.9789 10.7462 71.6709 10.6699C72.3629 10.5937 72.8573 10.5557 73.1543 10.5557C73.4254 10.5558 73.5615 10.696 73.5615 10.9746C73.5615 11.1778 73.4872 11.3494 73.3389 11.4883C73.1904 11.6281 72.9794 11.7236 72.708 11.7744C72.2874 11.8761 71.7937 12.0544 71.2256 12.3076C70.6565 12.5618 70.0878 12.854 69.5195 13.1836C69.0988 13.4124 68.6477 13.6978 68.166 14.041C67.6843 14.3843 67.2138 14.7455 66.7568 15.126C66.299 15.5065 65.885 15.8754 65.5146 16.2305C65.391 16.3576 65.3291 16.4978 65.3291 16.6494C65.3291 16.7257 65.353 16.7958 65.4033 16.8594C65.4528 16.9229 65.5014 16.9931 65.5518 17.0693C66.1448 17.8566 66.7134 18.6308 67.2578 19.3926C67.8014 20.1544 68.3452 20.8847 68.8896 21.583C69.4332 22.2813 69.9894 22.9736 70.5586 23.6592C70.9785 24.116 71.486 24.5355 72.0791 24.916C72.6722 25.2965 73.1665 25.5633 73.5625 25.7158C73.7605 25.7921 73.9759 25.8817 74.2109 25.9834C74.445 26.085 74.5633 26.2372 74.5635 26.4395C74.5635 26.7954 74.2915 26.9726 73.748 26.9727C72.2648 26.9727 70.812 26.9542 69.3906 26.916C67.9694 26.8779 66.6409 26.8584 65.4053 26.8584C64.9104 26.8584 64.6641 26.6812 64.6641 26.3252C64.6641 26.1229 64.7383 25.9708 64.8867 25.8691C65.0352 25.7684 65.232 25.6652 65.4795 25.5635C65.702 25.4873 65.8557 25.3984 65.9424 25.2969C66.029 25.1961 66.0856 25.0812 66.1104 24.9531C66.1103 24.8524 66.0661 24.7315 65.9795 24.5908C65.8929 24.4519 65.7877 24.2931 65.6641 24.1152L62.0674 19.0107C61.9932 18.9599 61.9313 18.9346 61.8818 18.9346C61.7335 18.9601 61.6592 19.0487 61.6592 19.2012V24.2295C61.6592 24.6617 61.752 24.9724 61.9375 25.1631C62.1231 25.3538 62.4012 25.5124 62.7725 25.6387C62.9695 25.7149 63.1488 25.8104 63.3096 25.9248C63.4703 26.0391 63.5507 26.1981 63.5508 26.4004C63.5508 26.5784 63.4828 26.7185 63.3467 26.8193C63.2106 26.9201 63.0561 26.9716 62.8838 26.9717C62.3888 26.9717 61.9378 26.9532 61.5303 26.915C61.1228 26.8769 60.7327 26.8448 60.3623 26.8193C59.9913 26.7939 59.584 26.7813 59.1396 26.7812C58.7189 26.7812 58.3049 26.7939 57.8975 26.8193C57.49 26.8448 57.0751 26.8769 56.6553 26.915C56.2346 26.9532 55.7772 26.9717 55.2832 26.9717H55.2812C54.7865 26.9717 54.5393 26.7952 54.5391 26.4395C54.5391 26.237 54.6133 26.0773 54.7617 25.9629C54.9102 25.8485 55.1203 25.753 55.3926 25.6768C55.7635 25.5497 56.0905 25.4103 56.375 25.2588C56.6587 25.1062 56.8018 24.7508 56.8018 24.1914V5.90723C56.8018 5.19616 56.7143 4.59259 56.541 4.09766C56.3677 3.603 55.9722 3.2921 55.3555 3.16406C55.0832 3.11321 54.9473 2.92334 54.9473 2.59277C54.9474 2.26245 55.0719 2.07232 55.3193 2.02148C55.9371 1.89435 56.6108 1.71123 57.3398 1.46973C58.069 1.22909 58.7673 0.974972 59.4346 0.708008C60.1019 0.441017 60.6209 0.244326 60.9922 0.117188C61.19 0.041 61.35 0.00294535 61.4736 0.00292969ZM116.569 9.79102C116.89 9.79102 117.052 9.94382 117.052 10.248C117.027 10.6803 116.971 11.2198 116.885 11.8672C116.798 12.5145 116.724 13.1808 116.662 13.8662C116.6 14.5519 116.568 15.2138 116.568 15.8477V24.2656C116.568 24.6216 116.699 24.9001 116.958 25.1035C117.218 25.3069 117.681 25.5104 118.349 25.7129C118.547 25.7892 118.706 25.8788 118.83 25.9805C118.954 26.0822 119.016 26.2351 119.016 26.4375C119.015 26.7677 118.83 26.9315 118.46 26.9316C117.99 26.9316 117.495 26.919 116.977 26.8936C116.458 26.8681 115.957 26.8428 115.475 26.8174C114.993 26.792 114.529 26.7793 114.084 26.7793C113.663 26.7793 113.225 26.792 112.768 26.8174C112.31 26.8428 111.841 26.875 111.359 26.9131C110.878 26.9512 110.389 26.9697 109.895 26.9697L109.896 26.9707C109.748 26.9707 109.611 26.9269 109.488 26.8379C109.365 26.749 109.303 26.628 109.303 26.4766C109.303 26.2742 109.365 26.1085 109.488 25.9814C109.612 25.8543 109.773 25.7656 109.971 25.7139C110.613 25.5614 111.063 25.3899 111.323 25.2002C111.583 25.0095 111.713 24.7115 111.713 24.3047V16.0771C111.713 15.2144 111.582 14.5973 111.323 14.2295C111.063 13.862 110.662 13.6398 110.119 13.5635C109.971 13.5381 109.859 13.4627 109.785 13.335C109.711 13.2079 109.673 13.0558 109.673 12.8779C109.673 12.4974 109.809 12.2813 110.081 12.2305C111.366 11.9771 112.509 11.6208 113.511 11.1631C114.512 10.7064 115.284 10.35 115.828 10.0957C116.223 9.8935 116.47 9.79127 116.569 9.79102ZM17.9082 12.5342C17.4636 12.5342 16.9437 12.6043 16.3506 12.7441C15.7576 12.884 15.2755 13.106 14.9043 13.4102V21.5244C14.9043 22.3372 15.072 23.0742 15.4053 23.7344C15.7384 24.3943 16.1773 24.9028 16.7207 25.2578C17.2642 25.6137 17.8461 25.791 18.4639 25.791C19.1312 25.791 19.6997 25.493 20.1699 24.8955C20.6393 24.2989 21.0047 23.5054 21.2637 22.5146C21.5235 21.524 21.6523 20.4451 21.6523 19.2773C21.6523 18.2621 21.5226 17.233 21.2637 16.1914C21.0038 15.1507 20.596 14.2804 20.04 13.582C19.4841 12.8838 18.7735 12.5342 17.9082 12.5342ZM98.7363 12.5342C98.2918 12.5342 97.7717 12.6043 97.1787 12.7441C96.5857 12.884 96.1036 13.106 95.7324 13.4102V21.5244C95.7324 22.3372 95.8992 23.0742 96.2324 23.7344C96.5657 24.3945 97.0053 24.9028 97.5488 25.2578C98.0924 25.6138 98.6741 25.791 99.292 25.791C99.9593 25.791 100.528 25.493 100.998 24.8955C101.467 24.2989 101.832 23.5052 102.091 22.5146C102.351 21.524 102.48 20.4451 102.48 19.2773C102.48 18.2621 102.35 17.233 102.091 16.1914C101.831 15.1507 101.424 14.2804 100.868 13.582C100.312 12.8838 99.6015 12.5343 98.7363 12.5342ZM45.9014 20.001C45.8519 20.001 45.79 20.0137 45.7158 20.0391C45.6416 20.0645 45.5549 20.1025 45.4561 20.1533C44.7394 20.5092 44.2078 20.8706 43.8613 21.2383C43.5148 21.607 43.3428 22.198 43.3428 23.0107C43.3428 23.7471 43.491 24.2487 43.7871 24.5156C44.0839 24.7824 44.3923 24.915 44.7139 24.915L44.7148 24.9141C44.9862 24.9141 45.2096 24.8693 45.3828 24.7803C45.555 24.6913 45.7283 24.546 45.9014 24.3428C45.9756 24.242 46.0365 24.1085 46.0869 23.9434C46.1364 23.7781 46.1611 23.5805 46.1611 23.3525L46.2725 20.6104C46.2725 20.357 46.2354 20.1915 46.1611 20.1152C46.0869 20.039 46.0003 20.001 45.9014 20.001ZM81.8662 11.9238C81.3474 11.9238 80.8583 12.0708 80.4014 12.3623C79.9436 12.6547 79.5737 13.0355 79.29 13.5049C79.0055 13.9751 78.8748 14.4632 78.9004 14.9707C78.9004 15.3267 79.0734 15.5039 79.4199 15.5039L79.4189 15.5049H81.6436C82.3356 15.5049 82.8176 15.4922 83.0898 15.4668C83.361 15.4414 83.6084 15.3907 83.8311 15.3145C83.9548 15.2636 84.0537 15.137 84.1279 14.9336C84.2022 14.7311 84.2393 14.5023 84.2393 14.248C84.2392 13.5625 84.0107 13.0035 83.5537 12.5713C83.0959 12.14 82.5335 11.9238 81.8662 11.9238ZM113.975 2.05859C114.84 2.05862 115.556 2.35067 116.125 2.93457C116.693 3.51932 116.978 4.24292 116.979 5.10547C116.979 5.91825 116.693 6.61724 116.125 7.20117C115.556 7.78589 114.84 8.07713 113.975 8.07715C113.208 8.07715 112.535 7.78586 111.954 7.20117C111.373 6.61724 111.082 5.91825 111.082 5.10547C111.082 4.24292 111.373 3.51932 111.954 2.93457C112.535 2.3507 113.208 2.05859 113.975 2.05859Z" fill="white"/>
</svg>
