<svg width="16" height="16" viewBox="0 0 16 16" fill="none" xmlns="http://www.w3.org/2000/svg">
<path d="M8.60003 8.6V11.951L9.69683 10.8542L10.5458 11.7032L8.00003 14.2484L5.45423 11.7032L6.30323 10.8542L7.40003 11.951V8.6H8.60003ZM8.00003 2C9.03022 2.00005 10.0245 2.37867 10.7938 3.06387C11.563 3.74907 12.0537 4.69308 12.1724 5.7164C12.919 5.91999 13.5703 6.37946 14.0124 7.01452C14.4546 7.64957 14.6595 8.41981 14.5914 9.19063C14.5233 9.96145 14.1865 10.6838 13.6398 11.2315C13.0931 11.7792 12.3713 12.1173 11.6006 12.1868V10.9784C11.8767 10.939 12.1422 10.8449 12.3816 10.7018C12.6209 10.5586 12.8294 10.3692 12.9948 10.1446C13.1601 9.92006 13.2791 9.66477 13.3448 9.3937C13.4104 9.12263 13.4214 8.8412 13.3771 8.56584C13.3327 8.29048 13.234 8.0267 13.0867 7.78991C12.9393 7.55312 12.7462 7.34805 12.5188 7.18668C12.2913 7.02531 12.0339 6.91087 11.7617 6.85005C11.4895 6.78922 11.208 6.78322 10.9334 6.8324C11.0274 6.39493 11.0223 5.94198 10.9186 5.50673C10.8148 5.07148 10.615 4.66495 10.3338 4.31692C10.0526 3.96888 9.69707 3.68816 9.29332 3.49532C8.88956 3.30247 8.44778 3.20238 8.00033 3.20238C7.55289 3.20238 7.11111 3.30247 6.70735 3.49532C6.30359 3.68816 5.94809 3.96888 5.66688 4.31692C5.38566 4.66495 5.18586 5.07148 5.0821 5.50673C4.97835 5.94198 4.97327 6.39493 5.06723 6.8324C4.51983 6.7296 3.954 6.84847 3.49424 7.16286C3.03448 7.47724 2.71843 7.96139 2.61563 8.5088C2.51284 9.05621 2.63171 9.62203 2.94609 10.0818C3.26048 10.5416 3.74463 10.8576 4.29203 10.9604L4.40003 10.9784V12.1868C3.6293 12.1174 2.90748 11.7793 2.36071 11.2317C1.81395 10.6841 1.47703 9.96173 1.40884 9.1909C1.34065 8.42006 1.54552 7.64977 1.98766 7.01466C2.42979 6.37956 3.08106 5.92003 3.82763 5.7164C3.94626 4.69303 4.43688 3.74895 5.20618 3.06372C5.97549 2.37849 6.96981 1.99992 8.00003 2Z" fill="#FDFCFD"/>
</svg>
