<svg width="20" height="20" viewBox="0 0 20 20" fill="none" xmlns="http://www.w3.org/2000/svg">
<path d="M9.30566 3.05554V16.9444H10.6946V3.05554H9.30566ZM6.52789 5.83332V14.1667H4.44455V5.83332H6.52789ZM4.44455 4.44443C3.67749 4.44443 3.05566 5.06626 3.05566 5.83332V14.1667C3.05566 14.9337 3.67749 15.5555 4.44455 15.5555H6.52789C7.29495 15.5555 7.91678 14.9337 7.91678 14.1667V5.83332C7.91678 5.06626 7.29495 4.44443 6.52789 4.44443H4.44455ZM12.0834 5.83332C12.0834 5.06626 12.7052 4.44443 13.4723 4.44443H15.5557C16.3227 4.44443 16.9446 5.06626 16.9446 5.83332V14.1667C16.9446 14.9337 16.3227 15.5555 15.5557 15.5555H13.4723C12.7052 15.5555 12.0834 14.9337 12.0834 14.1667V5.83332Z" fill="#FDFCFD"/>
</svg>
