<svg width="16" height="16" viewBox="0 0 16 16" fill="none" xmlns="http://www.w3.org/2000/svg">
<path d="M8.0001 1.59961C4.4657 1.59961 1.6001 4.46521 1.6001 7.99961C1.6001 10.9985 3.66516 13.5079 6.44916 14.2023C6.4193 14.1159 6.4001 14.0156 6.4001 13.8913V12.7975C6.14036 12.7975 5.70516 12.7975 5.59583 12.7975C5.15796 12.7975 4.76863 12.6092 4.57983 12.2593C4.37023 11.8705 4.33396 11.2759 3.8145 10.9121C3.66036 10.7911 3.7777 10.6529 3.9553 10.6716C4.2833 10.7644 4.5553 10.9895 4.8113 11.3233C5.06623 11.6577 5.18623 11.7335 5.6625 11.7335C5.89343 11.7335 6.23903 11.7201 6.56436 11.6689C6.7393 11.2247 7.0417 10.8156 7.4113 10.6225C5.2801 10.4033 4.26303 9.34308 4.26303 7.90361C4.26303 7.28388 4.52703 6.68441 4.97556 6.17934C4.82836 5.67801 4.6433 4.65561 5.0321 4.26628C5.99103 4.26628 6.57076 4.88814 6.70996 5.05614C7.18783 4.89241 7.71263 4.79961 8.2641 4.79961C8.81663 4.79961 9.34356 4.89241 9.8225 5.05721C9.9601 4.89028 10.5404 4.26628 11.5014 4.26628C11.8918 4.65614 11.7046 5.68281 11.5558 6.18308C12.0017 6.68708 12.2641 7.28494 12.2641 7.90361C12.2641 9.34201 11.2486 10.4017 9.12063 10.622C9.70623 10.9276 10.1334 11.7863 10.1334 12.4332V13.8913C10.1334 13.9468 10.1212 13.9868 10.1148 14.0343C12.6086 13.1601 14.4001 10.7921 14.4001 7.99961C14.4001 4.46521 11.5345 1.59961 8.0001 1.59961Z" fill="#FDFCFD"/>
</svg>
