<svg width="16" height="16" viewBox="0 0 16 16" fill="none" xmlns="http://www.w3.org/2000/svg">
<path d="M14.4875 0.743399C14.4275 0.677149 14.3412 0.639648 14.2512 0.639648H1.74871C1.65871 0.639648 1.57246 0.677149 1.51246 0.743399C1.45121 0.809648 1.42121 0.898399 1.42996 0.988398L2.55621 13.6046C2.56746 13.7371 2.65996 13.8471 2.78746 13.8846L7.91121 15.3471C7.93871 15.3559 7.96871 15.3596 7.99871 15.3596C8.02871 15.3596 8.05746 15.3559 8.08621 15.3471L13.2137 13.8846C13.3412 13.8471 13.4325 13.7371 13.445 13.6046L14.57 0.988398C14.5787 0.898399 14.5487 0.809648 14.4875 0.743399ZM11.7912 5.0934H5.77121L5.91496 6.72215H11.6462L11.2162 11.5359L7.99746 12.5084L7.96621 12.4984L4.78496 11.5346L4.61121 9.5734H6.16996L6.23746 10.3346L8.01621 10.7071L9.76246 10.3346L9.94871 8.27465H4.49496L4.07121 3.53715H11.93L11.7912 5.0934Z" fill="#3A8EE6"/>
</svg>
