<svg width="20" height="20" viewBox="0 0 20 20" fill="none" xmlns="http://www.w3.org/2000/svg">
<path d="M10 3.25C9.40327 3.25 8.83098 3.48705 8.40902 3.90901C7.98706 4.33097 7.75001 4.90326 7.75001 5.5V8.5C7.75001 9.09674 7.98706 9.66903 8.40902 10.091C8.83098 10.5129 9.40327 10.75 10 10.75C10.5967 10.75 11.169 10.5129 11.591 10.091C12.013 9.66903 12.25 9.09674 12.25 8.5V5.5C12.25 4.90326 12.013 4.33097 11.591 3.90901C11.169 3.48705 10.5967 3.25 10 3.25ZM10 1.75C10.4925 1.75 10.9801 1.847 11.4351 2.03545C11.89 2.22391 12.3034 2.50013 12.6517 2.84835C12.9999 3.19657 13.2761 3.60997 13.4646 4.06494C13.653 4.51991 13.75 5.00754 13.75 5.5V8.5C13.75 9.49456 13.3549 10.4484 12.6517 11.1517C11.9484 11.8549 10.9946 12.25 10 12.25C9.00545 12.25 8.05162 11.8549 7.34836 11.1517C6.6451 10.4484 6.25001 9.49456 6.25001 8.5V5.5C6.25001 4.50544 6.6451 3.55161 7.34836 2.84835C8.05162 2.14509 9.00545 1.75 10 1.75ZM3.29126 9.25H4.80251C4.98423 10.4986 5.60941 11.64 6.56368 12.4655C7.51796 13.2909 8.73752 13.7452 9.99926 13.7452C11.261 13.7452 12.4806 13.2909 13.4348 12.4655C14.3891 11.64 15.0143 10.4986 15.196 9.25H16.708C16.5375 10.7715 15.855 12.19 14.7724 13.2727C13.6899 14.3553 12.2715 15.038 10.75 15.2087V18.25H9.25001V15.2087C7.72836 15.0382 6.30985 14.3556 5.22714 13.2729C4.14444 12.1902 3.46182 10.7716 3.29126 9.25Z" fill="#FDFCFD"/>
</svg>
