<svg width="20" height="20" viewBox="0 0 20 20" fill="none" xmlns="http://www.w3.org/2000/svg">
<path d="M8.5 5.5C8.49974 6.55005 8.77505 7.58178 9.29843 8.4921C9.82181 9.40242 10.5749 10.1594 11.4825 10.6875C12.3901 11.2156 13.4204 11.4963 14.4704 11.5014C15.5205 11.5066 16.5535 11.2361 17.4662 10.717C17.1055 14.5225 13.9 17.5 10 17.5C5.85775 17.5 2.5 14.1423 2.5 10C2.5 6.1 5.4775 2.8945 9.283 2.53375C8.76817 3.43745 8.49826 4.45994 8.5 5.5ZM4 10C4 11.5913 4.63214 13.1174 5.75736 14.2426C6.88258 15.3679 8.4087 16 10 16C11.0601 15.9999 12.1013 15.7192 13.0178 15.1864C13.9342 14.6535 14.6933 13.8875 15.2178 12.9662C14.9808 12.9887 14.7408 13 14.5 13C10.3577 13 7 9.64225 7 5.5C7 5.25925 7.01125 5.02 7.03375 4.78225C6.11248 5.30674 5.3465 6.06579 4.81364 6.98225C4.28079 7.8987 4.00006 8.93989 4 10ZM14.623 2.71825L15.25 2.875V3.625L14.623 3.78175C14.3593 3.8477 14.1185 3.98407 13.9263 4.17627C13.7341 4.36848 13.5977 4.6093 13.5317 4.873L13.375 5.5H12.625L12.4683 4.873C12.4023 4.6093 12.2659 4.36848 12.0737 4.17627C11.8815 3.98407 11.6407 3.8477 11.377 3.78175L10.75 3.625V2.875L11.377 2.71825C11.6406 2.65218 11.8812 2.51576 12.0733 2.32356C12.2654 2.13137 12.4016 1.89061 12.4675 1.627L12.625 1H13.375L13.5317 1.627C13.5977 1.8907 13.7341 2.13152 13.9263 2.32373C14.1185 2.51594 14.3593 2.6523 14.623 2.71825ZM18.373 6.46825L19 6.625V7.375L18.373 7.53175C18.1093 7.5977 17.8685 7.73406 17.6763 7.92627C17.4841 8.11848 17.3477 8.3593 17.2817 8.623L17.125 9.25H16.375L16.2183 8.623C16.1523 8.3593 16.0159 8.11848 15.8237 7.92627C15.6315 7.73406 15.3907 7.5977 15.127 7.53175L14.5 7.375V6.625L15.127 6.46825C15.3907 6.4023 15.6315 6.26593 15.8237 6.07373C16.0159 5.88152 16.1523 5.6407 16.2183 5.377L16.375 4.75H17.125L17.2817 5.377C17.3477 5.6407 17.4841 5.88152 17.6763 6.07373C17.8685 6.26593 18.1093 6.4023 18.373 6.46825Z" fill="#FDFCFD"/>
</svg>
