<svg width="24" height="24" viewBox="0 0 24 24" fill="none" xmlns="http://www.w3.org/2000/svg">
<path d="M5.6999 10.2002C4.7099 10.2002 3.8999 11.0102 3.8999 12.0002C3.8999 12.9902 4.7099 13.8002 5.6999 13.8002C6.6899 13.8002 7.4999 12.9902 7.4999 12.0002C7.4999 11.0102 6.6899 10.2002 5.6999 10.2002ZM18.2999 10.2002C17.3099 10.2002 16.4999 11.0102 16.4999 12.0002C16.4999 12.9902 17.3099 13.8002 18.2999 13.8002C19.2899 13.8002 20.0999 12.9902 20.0999 12.0002C20.0999 11.0102 19.2899 10.2002 18.2999 10.2002ZM11.9999 10.2002C11.0099 10.2002 10.1999 11.0102 10.1999 12.0002C10.1999 12.9902 11.0099 13.8002 11.9999 13.8002C12.9899 13.8002 13.7999 12.9902 13.7999 12.0002C13.7999 11.0102 12.9899 10.2002 11.9999 10.2002Z" fill="#FDFCFD"/>
</svg>
