<svg width="20" height="20" viewBox="0 0 20 20" fill="none" xmlns="http://www.w3.org/2000/svg">
<path d="M4.75 4.75V7H15.25V4.75H4.75ZM4 3.25H16C16.1989 3.25 16.3897 3.32902 16.5303 3.46967C16.671 3.61032 16.75 3.80109 16.75 4V7.75C16.75 7.94891 16.671 8.13968 16.5303 8.28033C16.3897 8.42098 16.1989 8.5 16 8.5H4C3.80109 8.5 3.61032 8.42098 3.46967 8.28033C3.32902 8.13968 3.25 7.94891 3.25 7.75V4C3.25 3.80109 3.32902 3.61032 3.46967 3.46967C3.61032 3.32902 3.80109 3.25 4 3.25ZM5.5 10H10C10.1989 10 10.3897 10.079 10.5303 10.2197C10.671 10.3603 10.75 10.5511 10.75 10.75V13H11.5V17.5H8.5V13H9.25V11.5H4.75C4.55109 11.5 4.36032 11.421 4.21967 11.2803C4.07902 11.1397 4 10.9489 4 10.75V9.25H5.5V10ZM14.299 11.299L15.625 9.973L16.951 11.299C17.2132 11.5612 17.3917 11.8953 17.464 12.259C17.5363 12.6227 17.4992 12.9997 17.3572 13.3423C17.2153 13.6849 16.975 13.9777 16.6666 14.1837C16.3583 14.3897 15.9958 14.4997 15.625 14.4997C15.2542 14.4997 14.8917 14.3897 14.5834 14.1837C14.275 13.9777 14.0347 13.6849 13.8928 13.3423C13.7508 12.9997 13.7137 12.6227 13.786 12.259C13.8583 11.8953 14.0368 11.5612 14.299 11.299Z" fill="#FDFCFD"/>
</svg>
