<svg width="20" height="20" viewBox="0 0 20 20" fill="none" xmlns="http://www.w3.org/2000/svg">
<path d="M10.75 14.5V16H15.25V17.5H10.75C10.3522 17.5 9.97064 17.342 9.68934 17.0607C9.40804 16.7794 9.25 16.3978 9.25 16V14.5H7C6.20435 14.5 5.44129 14.1839 4.87868 13.6213C4.31607 13.0587 4 12.2956 4 11.5V6.25C4 6.05109 4.07902 5.86032 4.21967 5.71967C4.36032 5.57902 4.55109 5.5 4.75 5.5H7V2.5H8.5V5.5H11.5V2.5H13V5.5H15.25C15.4489 5.5 15.6397 5.57902 15.7803 5.71967C15.921 5.86032 16 6.05109 16 6.25V11.5C16 12.2956 15.6839 13.0587 15.1213 13.6213C14.5587 14.1839 13.7956 14.5 13 14.5H10.75ZM7 13H13C13.3978 13 13.7794 12.842 14.0607 12.5607C14.342 12.2794 14.5 11.8978 14.5 11.5V9.25H5.5V11.5C5.5 11.8978 5.65804 12.2794 5.93934 12.5607C6.22064 12.842 6.60218 13 7 13ZM14.5 7H5.5V7.75H14.5V7ZM10 11.875C9.80109 11.875 9.61032 11.796 9.46967 11.6553C9.32902 11.5147 9.25 11.3239 9.25 11.125C9.25 10.9261 9.32902 10.7353 9.46967 10.5947C9.61032 10.454 9.80109 10.375 10 10.375C10.1989 10.375 10.3897 10.454 10.5303 10.5947C10.671 10.7353 10.75 10.9261 10.75 11.125C10.75 11.3239 10.671 11.5147 10.5303 11.6553C10.3897 11.796 10.1989 11.875 10 11.875Z" fill="#FDFCFD"/>
</svg>
