<svg width="16" height="16" viewBox="0 0 16 16" fill="none" xmlns="http://www.w3.org/2000/svg">
<path d="M7.99992 11.3337C3.69992 11.3337 0.333252 9.86699 0.333252 8.00033C0.333252 6.13366 3.69992 4.66699 7.99992 4.66699C12.2999 4.66699 15.6666 6.13366 15.6666 8.00033C15.6666 9.86699 12.2999 11.3337 7.99992 11.3337ZM7.99992 5.33366C3.79992 5.33366 0.999919 6.70033 0.999919 8.00033C0.999919 9.30033 3.79992 10.667 7.99992 10.667C12.1999 10.667 14.9999 9.30033 14.9999 8.00033C14.9999 6.70033 12.1999 5.33366 7.99992 5.33366Z" fill="#80DEEA"/>
<path d="M5.03328 14.8663C4.69995 14.8663 4.43328 14.7997 4.16661 14.633C2.53328 13.6997 2.96661 10.0663 5.09995 6.333C6.09995 4.59966 7.33328 3.133 8.53328 2.19966C9.83328 1.19966 10.9999 0.899662 11.7999 1.36633C12.6333 1.833 12.9333 2.99966 12.7333 4.633C12.5333 6.16633 11.8666 7.96633 10.8666 9.69966C9.86661 11.433 8.63328 12.8997 7.43328 13.833C6.56661 14.4997 5.73328 14.8663 5.03328 14.8663ZM10.9666 1.79966C10.4333 1.79966 9.73328 2.09966 8.96661 2.69966C7.83328 3.59966 6.66661 4.99966 5.69995 6.66633C3.59995 10.2997 3.39994 13.433 4.49994 14.0663C5.06661 14.3997 5.99995 14.0997 7.03328 13.2997C8.16661 12.3997 9.33328 10.9997 10.2999 9.333C11.2666 7.66633 11.8999 5.96633 12.0999 4.533C12.2666 3.19966 12.0666 2.26633 11.4999 1.933C11.3333 1.86633 11.1666 1.79966 10.9666 1.79966Z" fill="#80DEEA"/>
<path d="M11.0001 14.8667C9.33343 14.8667 6.93343 12.8334 5.13343 9.66669C2.96677 5.93336 2.53343 2.30002 4.16677 1.36669C5.8001 0.433357 8.73343 2.60002 10.9001 6.33336C11.9001 8.06669 12.5668 9.86669 12.7668 11.4C13.0001 13.0334 12.6668 14.1667 11.8334 14.6667C11.5668 14.8 11.3001 14.8667 11.0001 14.8667ZM4.5001 1.93336C3.4001 2.56669 3.6001 5.70002 5.7001 9.33336C7.8001 12.9667 10.4001 14.7 11.5001 14.0667C12.0668 13.7334 12.2668 12.8 12.1001 11.4667C11.9001 10.0334 11.2668 8.33336 10.3001 6.66669C8.2001 3.03336 5.6001 1.30002 4.5001 1.93336Z" fill="#80DEEA"/>
<path d="M8.00008 9.33366C8.73646 9.33366 9.33341 8.73671 9.33341 8.00033C9.33341 7.26395 8.73646 6.66699 8.00008 6.66699C7.2637 6.66699 6.66675 7.26395 6.66675 8.00033C6.66675 8.73671 7.2637 9.33366 8.00008 9.33366Z" fill="#80DEEA"/>
</svg>
