<svg width="20" height="20" viewBox="0 0 20 20" fill="none" xmlns="http://www.w3.org/2000/svg">
<path d="M3.15806 9.868C6.80207 8.28039 9.232 7.23372 10.4478 6.72802C13.9192 5.28415 14.6405 5.03334 15.1106 5.02505C15.214 5.02323 15.4453 5.04886 15.595 5.17038C15.7214 5.273 15.7562 5.41161 15.7729 5.5089C15.7896 5.60619 15.8103 5.82782 15.7938 6.00098C15.6057 7.97753 14.7917 12.7741 14.3776 14.9879C14.2024 15.9246 13.8574 16.2386 13.5234 16.2694C12.7975 16.3362 12.2462 15.7897 11.5432 15.3288C10.443 14.6076 9.82151 14.1587 8.7536 13.4549C7.51946 12.6417 8.31951 12.1947 9.02283 11.4642C9.20693 11.273 12.4053 8.36388 12.4671 8.09998C12.4748 8.06697 12.4821 7.94394 12.4089 7.87898C12.3359 7.81401 12.228 7.83623 12.1502 7.8539C12.0398 7.87894 10.2823 9.04057 6.87759 11.3389C6.37872 11.6814 5.92687 11.8483 5.52202 11.8396C5.0757 11.8299 4.21717 11.5872 3.57894 11.3798C2.79613 11.1253 2.17397 10.9908 2.22814 10.5586C2.25636 10.3336 2.56633 10.1033 3.15806 9.868Z" fill="#252A30"/>
</svg>
