<svg width="32" height="32" viewBox="0 0 32 32" fill="none" xmlns="http://www.w3.org/2000/svg">
<path d="M16.0001 22C20.3945 22 24.2381 23.89 26.3285 26.71L24.1181 27.7552C22.4165 25.7392 19.4165 24.4 16.0001 24.4C12.5837 24.4 9.58365 25.7392 7.88205 27.7552L5.67285 26.7088C7.76325 23.8888 11.6057 22 16.0001 22ZM16.0001 4C17.5914 4 19.1175 4.63214 20.2427 5.75736C21.3679 6.88258 22.0001 8.4087 22.0001 10V13.6C22 15.1462 21.403 16.6326 20.3337 17.7493C19.2643 18.8661 17.8052 19.5269 16.2605 19.594L16.0001 19.6C14.4088 19.6 12.8826 18.9679 11.7574 17.8426C10.6322 16.7174 10.0001 15.1913 10.0001 13.6V10C10.0001 8.45384 10.5971 6.96741 11.6664 5.85067C12.7358 4.73393 14.195 4.0731 15.7397 4.006L16.0001 4ZM16.0001 6.4C15.0818 6.39995 14.1982 6.75079 13.5301 7.38074C12.862 8.01069 12.4599 8.87213 12.4061 9.7888L12.4001 10V13.6C12.3991 14.5371 12.7637 15.4376 13.4162 16.1102C14.0687 16.7828 14.9577 17.1744 15.8944 17.2019C16.8311 17.2294 17.7416 16.8906 18.4324 16.2574C19.1233 15.6243 19.54 14.7467 19.5941 13.8112L19.6001 13.6V10C19.6001 9.04522 19.2208 8.12955 18.5456 7.45442C17.8705 6.77928 16.9548 6.4 16.0001 6.4Z" fill="#5C5C5C"/>
</svg>
