<svg width="16" height="16" viewBox="0 0 16 16" fill="none" xmlns="http://www.w3.org/2000/svg">
<g clip-path="url(#clip0_573_295)">
<path d="M15.5959 2.35695L8.41544 15.3875C8.26719 15.6565 7.88631 15.6581 7.73583 15.3904L0.413052 2.35821C0.249117 2.06646 0.494944 1.71307 0.820716 1.77216L8.00881 3.07607C8.05466 3.08439 8.10161 3.08431 8.14746 3.07583L15.1852 1.77403C15.5099 1.71397 15.7569 2.06463 15.5959 2.35695Z" fill="url(#paint0_linear_573_295)"/>
<path d="M11.4327 0.0624176L6.11901 1.11908C6.03167 1.13645 5.96701 1.21156 5.96174 1.3017L5.63487 6.90422C5.62719 7.03618 5.7466 7.1386 5.87351 7.1089L7.35292 6.7624C7.49134 6.73001 7.61641 6.85373 7.58797 6.995L7.14843 9.17927C7.11885 9.32628 7.25485 9.45199 7.39632 9.40838L8.31007 9.12664C8.45173 9.083 8.58785 9.20905 8.55788 9.35618L7.85938 12.7872C7.81567 13.0018 8.09696 13.1188 8.21427 12.9348L8.29263 12.8119L12.6225 4.04252C12.695 3.89569 12.57 3.72826 12.4111 3.75938L10.8883 4.05765C10.7452 4.08565 10.6234 3.9504 10.6638 3.80831L11.6577 0.311625C11.6982 0.169298 11.576 0.0339337 11.4327 0.0624176Z" fill="url(#paint1_linear_573_295)"/>
</g>
<defs>
<linearGradient id="paint0_linear_573_295" x1="0.23426" y1="1.30647" x2="9.34243" y2="13.4951" gradientUnits="userSpaceOnUse">
<stop stop-color="#41D1FF"/>
<stop offset="1" stop-color="#BD34FE"/>
</linearGradient>
<linearGradient id="paint1_linear_573_295" x1="7.59608" y1="0.3493" x2="9.26001" y2="11.5966" gradientUnits="userSpaceOnUse">
<stop stop-color="#FFEA83"/>
<stop offset="0.0833333" stop-color="#FFDD35"/>
<stop offset="1" stop-color="#FFA800"/>
</linearGradient>
<clipPath id="clip0_573_295">
<rect width="16" height="16" fill="white"/>
</clipPath>
</defs>
</svg>
