<svg width="61" height="63" viewBox="0 0 61 63" fill="none" xmlns="http://www.w3.org/2000/svg">
<g clip-path="url(#clip0_91_151)">
<path d="M56.5112 20.5406L54.6228 15.3602L55.9224 12.3881C56.0848 11.996 56.0036 11.5626 55.7193 11.253L52.1657 7.59987C50.6021 6.01065 48.2872 5.4534 46.1957 6.1964L45.2007 6.54727L39.7586 0.561917L30.5598 0.5H30.4989L21.2393 0.582557L15.8175 6.60919L14.8428 6.25832C12.731 5.49467 10.3957 6.05193 8.83215 7.68242L5.21763 11.3975C4.97396 11.6451 4.91304 11.996 5.03488 12.3056L6.3954 15.4015L4.52722 20.5819L5.7456 25.267L11.2689 46.5872C11.8984 49.0433 13.3604 51.1898 15.4114 52.6758C15.4114 52.6758 22.1124 57.4847 28.712 61.8396C29.3009 62.2317 29.91 62.5 30.5598 62.5C31.2096 62.5 31.8188 62.2317 32.4077 61.8396C39.8398 56.8862 45.7083 52.6551 45.7083 52.6551C47.7389 51.1691 49.201 49.0226 49.8305 46.5666L55.3132 25.2463L56.5112 20.5406Z" fill="#F15A22"/>
<path style="mix-blend-mode:lighten" opacity="0.15" d="M11.5329 47.4954L4.52722 21.036L6.57815 15.8556L5.15672 12.0167L8.54786 8.50808C9.6647 7.49677 11.8578 7.1459 12.8731 7.74443L18.173 10.8403L25.0772 12.4708L30.4583 10.2005L30.9051 57.1958C30.8238 63.9655 31.2503 63.2431 26.3564 60.044L14.2742 51.809C12.9746 50.55 11.9796 49.1259 11.5329 47.4954Z" fill="url(#paint0_linear_91_151)"/>
<path style="mix-blend-mode:darken" opacity="0.4" d="M45.5865 52.5615L35.3115 59.7026C32.4483 61.2918 31.0675 62.8604 30.8441 62.0968C30.6614 61.4982 30.8035 59.7439 30.7426 57.0195L30.6208 11.0562C30.6411 10.6021 30.9457 9.83846 31.4736 9.92101L36.7126 11.5309L44.2666 10.3338L49.2619 6.59811C49.7899 6.18533 50.5615 6.2266 51.0489 6.7013L55.5162 11.0355C55.9224 11.4689 55.9427 12.3152 55.699 12.8518L54.4603 15.184L56.5112 20.5708L49.4447 47.2779C48.3481 50.6008 46.8048 51.4676 45.5865 52.5615Z" fill="url(#paint1_linear_91_151)"/>
<path d="M31.7375 38.6413C31.4938 38.5381 31.2298 38.4556 31.1486 38.4556H30.8237H30.4988C30.4176 38.4556 30.1536 38.5381 29.9099 38.6413L27.2701 39.7558C27.0264 39.859 26.6203 40.0448 26.3766 40.1686L22.3966 42.2738C22.1529 42.3976 22.1326 42.6247 22.356 42.7898L25.869 45.3078C26.0923 45.4729 26.4375 45.7412 26.6406 45.9269L28.2042 47.2891C28.4073 47.4749 28.7322 47.7638 28.9352 47.9496L30.4379 49.3118C30.6409 49.4975 30.9658 49.4975 31.1689 49.3118L32.7122 47.9496C32.9152 47.7638 33.2401 47.4749 33.4432 47.2891L35.0068 45.9063C35.2099 45.7205 35.5551 45.4522 35.7784 45.2871L39.2914 42.7485C39.5148 42.5834 39.4945 42.3564 39.2508 42.2325L35.2708 40.1686C35.0271 40.0448 34.621 39.859 34.3773 39.7558L31.7375 38.6413Z" fill="white"/>
<path d="M50.7877 21.4605C50.8689 21.1922 50.8689 21.089 50.8689 21.089C50.8689 20.8207 50.8486 20.3666 50.808 20.0983L50.6049 19.4998C50.4831 19.2521 50.28 18.86 50.1176 18.6329L47.8229 15.1862C47.6808 14.9592 47.4168 14.6083 47.2341 14.3813L44.2694 10.6043C44.1069 10.3979 43.9445 10.2122 43.9241 10.2328H43.8835C43.8835 10.2328 43.6602 10.2741 43.3962 10.3154L38.8679 11.2235C38.6039 11.2854 38.1775 11.368 37.9135 11.4092L37.8323 11.4299C37.5683 11.4711 37.1419 11.4505 36.8779 11.368L33.0806 10.1296C32.8166 10.047 32.3902 9.92321 32.1465 9.86129C32.1465 9.86129 31.3749 9.67554 30.7454 9.69618C30.1159 9.69618 29.3443 9.86129 29.3443 9.86129C29.0803 9.92321 28.6538 10.047 28.4102 10.1296L24.6129 11.368C24.3489 11.4505 23.9225 11.4711 23.6585 11.4299L23.5773 11.4092C23.3133 11.368 22.8869 11.2648 22.6229 11.2235L18.054 10.3566C17.79 10.2947 17.5666 10.2741 17.5666 10.2741H17.526C17.5057 10.2741 17.3433 10.4392 17.1808 10.6456L14.2161 14.4225C14.0536 14.6289 13.7897 15.0004 13.6272 15.2275L11.3326 18.6742C11.1905 18.9012 10.9671 19.2934 10.8452 19.5411L10.6422 20.1396C10.6016 20.4079 10.561 20.862 10.5813 21.1303C10.5813 21.1303 10.5813 21.2128 10.6625 21.5018C10.8046 21.9971 11.1498 22.4512 11.1498 22.4512C11.3123 22.6576 11.6169 23.0084 11.7996 23.1942L18.521 30.4592C18.7038 30.6656 18.7647 31.0371 18.6632 31.2847L17.262 34.6489C17.1605 34.8966 17.1402 35.3094 17.2417 35.5777L17.6275 36.6303C17.9524 37.5178 18.5007 38.302 19.2317 38.9006L20.5923 40.0151C20.7953 40.1802 21.1608 40.2421 21.4045 40.1183L25.7094 38.0337C25.9531 37.9099 26.3186 37.6622 26.5217 37.4765L29.6082 34.6489C30.055 34.2361 30.0753 33.5344 29.6692 33.0803L23.1915 28.6429C22.9681 28.4984 22.8869 28.1682 23.0087 27.9206L25.8516 22.4718C25.9734 22.2241 25.9937 21.832 25.8922 21.5843L25.547 20.7794C25.4454 20.5317 25.1409 20.2428 24.8972 20.1396L16.5513 16.9612C16.3076 16.858 16.3076 16.7548 16.5716 16.7341L21.9528 16.2182C22.2168 16.1975 22.6432 16.2388 22.9072 16.3007L27.6994 17.6629C27.9634 17.7454 28.1259 18.0138 28.0853 18.2821L26.4202 27.549C26.3795 27.8174 26.3795 28.1889 26.4405 28.3953C26.5014 28.6016 26.7654 28.7874 27.0293 28.8493L30.3596 29.5717C30.6235 29.6336 31.05 29.6336 31.314 29.5717L34.4208 28.8493C34.6848 28.7874 34.9488 28.581 35.0097 28.3953C35.0706 28.2095 35.0909 27.8174 35.03 27.549L33.3852 18.2821C33.3446 18.0138 33.507 17.7248 33.771 17.6629L38.5633 16.3007C38.8273 16.2182 39.2537 16.1975 39.5177 16.2182L44.8988 16.7341C45.1628 16.7548 45.1831 16.858 44.9192 16.9612L36.5733 20.1809C36.3296 20.2841 36.025 20.5524 35.9235 20.8207L35.5783 21.6256C35.4767 21.8733 35.4767 22.2861 35.6189 22.5131L38.4821 27.9618C38.6039 28.2095 38.5227 28.5191 38.2993 28.6842L31.8216 33.1423C31.3952 33.5757 31.4358 34.298 31.8825 34.7108L34.9691 37.5384C35.1721 37.7241 35.5377 37.9718 35.7813 38.075L40.1066 40.1596C40.3502 40.2834 40.7158 40.2215 40.9188 40.0564L42.2793 38.9212C43.0104 38.3227 43.5586 37.5384 43.8632 36.6509L44.249 35.5983C44.3506 35.3506 44.3303 34.9172 44.2287 34.6696L42.8276 31.3054C42.7261 31.0577 42.787 30.6862 42.9697 30.4798L49.6911 23.2148C49.8739 23.0084 50.1582 22.6782 50.3409 22.4718C50.3003 22.4099 50.6658 21.9558 50.7877 21.4605Z" fill="white"/>
</g>
<defs>
<linearGradient id="paint0_linear_91_151" x1="4.52722" y1="34.9364" x2="30.9306" y2="34.9364" gradientUnits="userSpaceOnUse">
<stop stop-color="white"/>
<stop offset="0.1413" stop-color="white" stop-opacity="0.9576"/>
<stop offset="1" stop-color="white" stop-opacity="0.7"/>
</linearGradient>
<linearGradient id="paint1_linear_91_151" x1="30.6106" y1="34.2955" x2="56.5112" y2="34.2955" gradientUnits="userSpaceOnUse">
<stop stop-color="#F1F1F2"/>
<stop offset="0.0919144" stop-color="#E4E5E6"/>
<stop offset="0.2357" stop-color="#D9DADB"/>
<stop offset="0.438" stop-color="#D2D4D5"/>
<stop offset="1" stop-color="#D0D2D3"/>
</linearGradient>
<clipPath id="clip0_91_151">
<rect width="61" height="62" fill="white" transform="translate(-0.00012207 0.5)"/>
</clipPath>
</defs>
</svg>
