<svg width="61" height="62" viewBox="0 0 61 62" fill="none" xmlns="http://www.w3.org/2000/svg">
<path fill-rule="evenodd" clip-rule="evenodd" d="M30.4542 1.22304C30.4542 1.22304 47.9129 0.439478 57.1688 17.988H28.9687C28.9687 17.988 23.647 17.8166 19.1007 24.2728C17.7947 26.9827 16.3909 29.7741 17.9662 35.2754C15.6971 31.431 5.91888 14.4048 5.91888 14.4048C5.91888 14.4048 12.8159 1.91682 30.4542 1.22304Z" fill="#EF3F36"/>
<path fill-rule="evenodd" clip-rule="evenodd" d="M56.2628 45.7717C56.2628 45.7717 48.2068 61.2878 28.3892 60.5206C30.8378 56.2845 42.4933 36.0996 42.4933 36.0996C42.4933 36.0996 45.3092 31.5778 41.9872 24.4114C40.2977 21.922 38.5755 19.3183 33.0252 17.9307C37.4899 17.8899 57.1198 17.9307 57.1198 17.9307C57.1198 17.9307 64.4738 30.1494 56.2628 45.7717Z" fill="#FCD900"/>
<path fill-rule="evenodd" clip-rule="evenodd" d="M4.76801 45.8943C4.76801 45.8943 -4.64291 31.1617 5.93519 14.3804C8.37566 18.6165 20.0311 38.8014 20.0311 38.8014C20.0311 38.8014 22.5451 43.5028 30.4052 44.2047C33.4007 43.9843 36.5186 43.7966 40.5017 39.6911C38.3061 43.5762 28.4544 60.5534 28.4544 60.5534C28.4544 60.5534 14.1871 60.8146 4.76801 45.8943Z" fill="#61BC5B"/>
<path fill-rule="evenodd" clip-rule="evenodd" d="M28.381 60.6676L32.3478 44.1148C32.3478 44.1148 36.7063 43.772 40.363 39.7644C38.0939 43.7557 28.381 60.6676 28.381 60.6676Z" fill="#5AB055"/>
<path fill-rule="evenodd" clip-rule="evenodd" d="M17.1663 31.129C17.1663 23.8321 23.0838 17.9146 30.3807 17.9146C37.6776 17.9146 43.5952 23.8321 43.5952 31.129C43.5952 38.4259 37.6776 44.3435 30.3807 44.3435C23.0838 44.3353 17.1663 38.4259 17.1663 31.129Z" fill="white"/>
<path fill-rule="evenodd" clip-rule="evenodd" d="M19.3782 31.129C19.3782 25.0564 24.2999 20.1265 30.3807 20.1265C36.4533 20.1265 41.3832 25.0482 41.3832 31.129C41.3832 37.2016 36.4615 42.1315 30.3807 42.1315C24.3081 42.1315 19.3782 37.2016 19.3782 31.129Z" fill="url(#paint0_linear_93_195)"/>
<path fill-rule="evenodd" clip-rule="evenodd" d="M57.1116 17.9389L40.7792 22.73C40.7792 22.73 38.3142 19.1142 33.017 17.9389C37.6123 17.9144 57.1116 17.9389 57.1116 17.9389Z" fill="#EACA05"/>
<path fill-rule="evenodd" clip-rule="evenodd" d="M17.6478 34.6713C15.3543 30.6964 5.91888 14.4048 5.91888 14.4048L18.0151 26.3704C18.0151 26.3704 16.7745 28.9252 17.2397 32.5818L17.6478 34.6713Z" fill="#DF3A32"/>
<defs>
<linearGradient id="paint0_linear_93_195" x1="19.7865" y1="20.2818" x2="19.7865" y2="41.4691" gradientUnits="userSpaceOnUse">
<stop stop-color="#86BBE5"/>
<stop offset="1" stop-color="#1072BA"/>
</linearGradient>
</defs>
</svg>
