<svg width="61" height="62" viewBox="0 0 61 62" fill="none" xmlns="http://www.w3.org/2000/svg">
<path d="M56.1904 47.4166C49.1841 58.2063 37.8339 61.149 33.3498 60.8687C6.58576 59.6076 10.6494 24.1557 26.7639 24.2958C15.2736 31.5824 30.9677 55.6841 54.0885 46.2956C56.4707 44.6141 56.891 46.716 56.1904 47.4166Z" fill="url(#paint0_radial_93_116)"/>
<path d="M38.2543 30.7415C40.7766 19.2512 33.9104 11.8245 20.178 11.8245C6.44568 11.8245 -0.00012207 24.7161 -0.00012207 31.302C-0.00012207 48.6777 17.5156 66.7539 40.2161 59.7476C21.4392 65.2125 10.2291 43.493 19.7577 30.3211C26.2035 21.0728 36.9932 20.7926 38.2543 30.7415ZM52.2669 8.88184H52.407H52.2669Z" fill="url(#paint1_radial_93_116)"/>
<path d="M0.139954 30.4613C1.82147 -7.09246 53.3879 -9.19435 60.8146 23.3149C62.7763 38.3084 48.7637 44.1937 37.5536 39.4294C31.6683 35.7861 41.1969 36.6269 37.1333 25.5569C30.4072 9.8628 1.96159 11.1239 0.139954 30.4613Z" fill="url(#paint2_linear_93_116)"/>
<defs>
<radialGradient id="paint0_radial_93_116" cx="0" cy="0" r="1" gradientUnits="userSpaceOnUse" gradientTransform="translate(39.4835 42.591) scale(21.2667 18.2956)">
<stop offset="0.8" stop-color="#114488"/>
<stop offset="1" stop-color="#113377"/>
</radialGradient>
<radialGradient id="paint1_radial_93_116" cx="0" cy="0" r="1" gradientUnits="userSpaceOnUse" gradientTransform="translate(26.2035 40.3295) scale(26.2036 26.2064)">
<stop offset="0.8" stop-color="#3388CC"/>
<stop offset="1" stop-color="#226699"/>
</radialGradient>
<linearGradient id="paint2_linear_93_116" x1="0.139954" y1="20.7728" x2="48.804" y2="57.2957" gradientUnits="userSpaceOnUse">
<stop offset="0.1" stop-color="#55AADD"/>
<stop offset="0.6" stop-color="#55CC88"/>
<stop offset="0.8" stop-color="#77DD55"/>
</linearGradient>
</defs>
</svg>
