<svg width="61" height="64" viewBox="0 0 61 64" fill="none" xmlns="http://www.w3.org/2000/svg">
<path d="M58.7929 21.6642C57.4538 18.4627 54.7757 15.0167 52.6647 13.9364C54.1678 16.8465 55.212 19.972 55.7603 23.2019V23.2571C52.3181 14.6382 46.4656 11.1685 41.6843 3.59842C41.4322 3.21991 41.1959 2.83352 40.9596 2.43135C40.8257 2.19479 40.7233 1.98976 40.6209 1.80051C40.4218 1.41496 40.2685 1.00739 40.1641 0.586136C40.1644 0.567688 40.1583 0.549694 40.1468 0.535286C40.1353 0.520877 40.1191 0.510967 40.101 0.507281C40.0757 0.497573 40.0476 0.497573 40.0223 0.507281V0.523052C40.0223 0.538823 39.9986 0.523052 39.9986 0.523052V0.507281C32.3423 5.00204 29.7351 13.3292 29.4988 17.4849C26.4348 17.6976 23.5059 18.8298 21.0941 20.7337C20.8426 20.5198 20.5796 20.3198 20.3065 20.1344C19.6094 17.6896 19.5822 15.1021 20.2277 12.6431C17.4078 14.01 14.9024 15.9488 12.8707 18.3365C11.6498 16.8067 11.7364 11.7442 11.8073 10.6875C11.448 10.8295 11.1047 11.0092 10.7833 11.2237C9.71182 11.9877 8.71015 12.8453 7.7901 13.7865C6.75107 14.8489 5.80255 15.9963 4.95443 17.2168C2.99193 20.0016 1.59982 23.148 0.858451 26.4744L0.803313 26.6873C0.748174 26.9475 0.535499 28.2959 0.503991 28.5798V28.6587C0.239261 30.0486 0.0760398 31.4559 0.015625 32.8696L0.015625 33.0273C0.0279463 40.6755 2.90411 48.0412 8.0763 53.6701C13.2485 59.2991 20.3408 62.7822 27.953 63.4319C35.5652 64.0816 43.1441 61.8505 49.1934 57.1792C55.2428 52.508 59.3228 45.736 60.6282 38.2002C60.6833 37.8059 60.7227 37.4116 60.77 37.0174C61.4023 31.8153 60.7253 26.5376 58.8007 21.6642H58.7929ZM23.6069 45.5811C23.7487 45.6599 23.8826 45.7388 24.0243 45.794L24.048 45.8097C23.9062 45.7362 23.7618 45.6573 23.6147 45.5732L23.6069 45.5811ZM55.7681 23.2492V23.2255V23.2571V23.2492Z" fill="url(#paint0_linear_93_121)"/>
<path d="M58.7929 21.6644C57.4538 18.4628 54.7757 15.0168 52.6647 13.9365C54.1678 16.8467 55.212 19.9722 55.7603 23.202V23.2651C58.1152 30.0059 57.7766 37.3971 54.815 43.8937C51.3177 51.4086 42.8422 59.1128 29.5854 58.7343C15.2653 58.34 2.6465 47.6945 0.283439 33.7529C-0.141913 31.5449 0.283439 30.441 0.503991 28.651C0.210777 30.0363 0.0472803 31.4461 0.015625 32.8618L0.015625 33.0195C0.0279463 40.6678 2.90411 48.0335 8.0763 53.6624C13.2485 59.2914 20.3408 62.7745 27.953 63.4242C35.5652 64.0738 43.1441 61.8428 49.1934 57.1715C55.2428 52.5003 59.3228 45.7282 60.6282 38.1925C60.6833 37.7982 60.7227 37.4039 60.77 37.0096C61.4023 31.8076 60.7253 26.5298 58.8007 21.6565L58.7929 21.6644Z" fill="url(#paint1_radial_93_121)"/>
<path d="M58.7929 21.6644C57.4538 18.4628 54.7757 15.0168 52.6647 13.9365C54.1678 16.8467 55.212 19.9722 55.7603 23.202V23.2651C58.1152 30.0059 57.7766 37.3971 54.815 43.8937C51.3177 51.4086 42.8422 59.1128 29.5854 58.7343C15.2653 58.34 2.6465 47.6945 0.283439 33.7529C-0.141913 31.5449 0.283439 30.441 0.503991 28.651C0.210777 30.0363 0.0472803 31.4461 0.015625 32.8618L0.015625 33.0195C0.0279463 40.6678 2.90411 48.0335 8.0763 53.6624C13.2485 59.2914 20.3408 62.7745 27.953 63.4242C35.5652 64.0738 43.1441 61.8428 49.1934 57.1715C55.2428 52.5003 59.3228 45.7282 60.6282 38.1925C60.6833 37.7982 60.7227 37.4039 60.77 37.0096C61.4023 31.8076 60.7253 26.5298 58.8007 21.6565L58.7929 21.6644Z" fill="url(#paint2_radial_93_121)"/>
<path d="M43.9528 25.2522C44.0316 25.2995 44.0789 25.3468 44.1419 25.3941C43.3753 24.0314 42.4207 22.7838 41.3062 21.6879C31.8225 12.1937 38.825 1.09085 40.0065 0.530981V0.507324C32.3502 5.00209 29.743 13.3292 29.5067 17.4849C29.8611 17.4613 30.2156 17.4376 30.5779 17.4376C33.2971 17.4415 35.9669 18.1658 38.316 19.537C40.6651 20.9081 42.6099 22.8772 43.9528 25.2443V25.2522Z" fill="url(#paint3_radial_93_121)"/>
<path d="M30.6015 27.1604C30.5464 27.9095 27.8683 30.5354 26.923 30.5354C18.2427 30.5354 16.8406 35.7872 16.8406 35.7872C17.2187 40.2189 20.3065 43.862 24.0243 45.8018L24.5442 46.0384C24.8435 46.1698 25.1429 46.2934 25.4422 46.409C26.7195 46.8637 28.0577 47.1242 29.4121 47.1818C44.6303 47.8915 47.5762 28.9662 36.5958 23.47C39.186 23.1361 41.8077 23.7768 43.9528 25.2679C42.6099 22.9008 40.6651 20.9317 38.316 19.5606C35.9669 18.1894 33.2971 17.4651 30.5779 17.4612C30.2156 17.4612 29.869 17.477 29.5067 17.5006C26.4426 17.7134 23.5138 18.8456 21.102 20.7495C21.5746 21.1437 22.0945 21.6642 23.2052 22.7603C25.2768 24.8105 30.5858 26.916 30.6094 27.1762L30.6015 27.1604Z" fill="url(#paint4_radial_93_121)"/>
<path d="M30.6015 27.1604C30.5464 27.9095 27.8683 30.5354 26.923 30.5354C18.2427 30.5354 16.8406 35.7872 16.8406 35.7872C17.2187 40.2189 20.3065 43.862 24.0243 45.8018L24.5442 46.0384C24.8435 46.1698 25.1429 46.2934 25.4422 46.409C26.7195 46.8637 28.0577 47.1242 29.4121 47.1818C44.6303 47.8915 47.5762 28.9662 36.5958 23.47C39.186 23.1361 41.8077 23.7768 43.9528 25.2679C42.6099 22.9008 40.6651 20.9317 38.316 19.5606C35.9669 18.1894 33.2971 17.4651 30.5779 17.4612C30.2156 17.4612 29.869 17.477 29.5067 17.5006C26.4426 17.7134 23.5138 18.8456 21.102 20.7495C21.5746 21.1437 22.0945 21.6642 23.2052 22.7603C25.2768 24.8105 30.5858 26.916 30.6094 27.1762L30.6015 27.1604Z" fill="url(#paint5_radial_93_121)"/>
<path d="M19.6842 19.7164C19.9205 19.8741 20.1331 20.0082 20.3143 20.1343C19.6172 17.6895 19.59 15.102 20.2355 12.6431C17.4156 14.01 14.9103 15.9488 12.8785 18.3364C13.0361 18.3364 17.4471 18.2576 19.6842 19.7085V19.7164Z" fill="url(#paint6_radial_93_121)"/>
<path d="M0.29131 33.7528C2.65437 47.6866 15.2574 58.3321 29.5933 58.7342C42.8501 59.1127 51.3177 51.4007 54.815 43.8936C57.7765 37.397 58.1152 30.0058 55.7603 23.265V23.2335V23.202L55.776 23.2572C56.8473 30.3384 53.2554 37.1909 47.6313 41.8276L47.6077 41.8671C36.6588 50.8014 26.1826 47.2608 24.0558 45.8098C23.8983 45.7415 23.7486 45.6679 23.6069 45.589C17.2266 42.5373 14.58 36.7099 15.1471 31.7105C13.6314 31.7334 12.1416 31.3157 10.8581 30.5081C9.57472 29.7006 8.55278 28.5377 7.91612 27.1605C9.59309 26.1324 11.5051 25.5514 13.4699 25.4727C15.4348 25.394 17.387 25.8203 19.1407 26.711C22.7535 28.351 26.8636 28.5123 30.5936 27.1605C30.5779 26.9082 25.2689 24.7948 23.1894 22.7446C22.0866 21.6564 21.5668 21.1359 21.0941 20.7417C20.8426 20.5278 20.5796 20.3277 20.3065 20.1424C20.1253 20.0162 19.9284 19.8821 19.6763 19.7244C17.455 18.2735 13.0282 18.3523 12.8786 18.3523H12.8628C11.6576 16.8226 11.7364 11.76 11.8073 10.7034C11.448 10.8453 11.1047 11.0251 10.7833 11.2396C9.71149 12.006 8.70981 12.8663 7.79009 13.8103C6.74323 14.8691 5.78679 16.0139 4.93079 17.2326C2.96829 20.0175 1.57618 23.1639 0.834814 26.4902C0.819061 26.5533 -0.267948 31.3004 0.267679 33.7607L0.29131 33.7528Z" fill="url(#paint7_radial_93_121)"/>
<path d="M41.3141 21.6879C42.4286 22.7837 43.3832 24.0314 44.1497 25.3941C44.3073 25.5281 44.4648 25.6543 44.6066 25.7726C51.5382 32.1599 47.9149 41.1888 47.6392 41.8354C53.2554 37.1987 56.8551 30.3462 55.776 23.265C52.3102 14.6461 46.4655 11.1764 41.6764 3.6063C41.4401 3.2278 41.2038 2.8414 40.9675 2.43924C40.8336 2.20267 40.7312 1.99765 40.6288 1.8084C40.4264 1.4207 40.2704 1.01044 40.164 0.586136C40.1644 0.567688 40.1583 0.549694 40.1468 0.535286C40.1353 0.520877 40.1191 0.510967 40.101 0.507281C40.0757 0.497573 40.0476 0.497573 40.0223 0.507281V0.523052C40.0223 0.538823 39.9986 0.523052 39.9986 0.523052C38.8171 1.09081 31.8067 12.1937 41.3062 21.6879H41.3141Z" fill="url(#paint8_radial_93_121)"/>
<path d="M44.5987 25.7725C44.4648 25.6464 44.3073 25.5202 44.1419 25.394L43.9528 25.2521C41.8045 23.7618 39.1797 23.1239 36.588 23.4621C47.5683 28.9662 44.6224 47.9073 29.4043 47.1818C28.0529 47.1259 26.7174 46.8681 25.4422 46.4169C25.1429 46.3118 24.8435 46.1908 24.5442 46.0542C24.3709 45.9753 24.2055 45.8965 24.0322 45.8176H24.0559C26.1826 47.2685 36.6589 50.817 47.6235 41.8748L47.6392 41.8433C47.9149 41.2124 51.5383 32.1677 44.6145 25.7883L44.5987 25.7725Z" fill="url(#paint9_radial_93_121)"/>
<path d="M16.8328 35.7873C16.8328 35.7873 18.2506 30.5355 26.9152 30.5355C27.8604 30.5355 30.5385 27.9096 30.6015 27.1447C26.8678 28.5033 22.7512 28.3448 19.1328 26.7031C17.3792 25.8124 15.4269 25.3861 13.4621 25.4648C11.4972 25.5435 9.58523 26.1245 7.90826 27.1526C8.54716 28.5308 9.57205 29.6937 10.8585 30.5C12.1449 31.3063 13.6375 31.7213 15.155 31.6947C14.58 36.6941 17.2187 42.5215 23.6069 45.5732C23.7487 45.6521 23.8826 45.7152 24.0244 45.7861C20.2986 43.8542 17.2187 40.2111 16.8328 35.7715V35.7873Z" fill="url(#paint10_radial_93_121)"/>
<path d="M58.7929 21.6642C57.4538 18.4627 54.7757 15.0167 52.6647 13.9364C54.1678 16.8465 55.212 19.972 55.7603 23.2019V23.2571C52.3181 14.6382 46.4656 11.1685 41.6843 3.59842C41.4322 3.21991 41.1959 2.83352 40.9596 2.43135C40.8257 2.19479 40.7233 1.98976 40.6209 1.80051C40.4218 1.41496 40.2685 1.00739 40.1641 0.586136C40.1644 0.567688 40.1583 0.549694 40.1468 0.535286C40.1353 0.520877 40.1191 0.510967 40.1011 0.507281C40.0757 0.497573 40.0476 0.497573 40.0223 0.507281V0.523052C40.0223 0.538823 39.9986 0.523052 39.9986 0.523052V0.507281C32.3423 5.00204 29.7351 13.3292 29.4988 17.4849C29.8532 17.4612 30.2077 17.4376 30.57 17.4376C33.2893 17.4415 35.959 18.1658 38.3081 19.5369C40.6572 20.9081 42.602 22.8772 43.945 25.2442C41.7977 23.7587 39.1761 23.1236 36.588 23.4621C47.5683 28.9662 44.6224 47.9073 29.4043 47.1818C28.0502 47.1267 26.7121 46.8689 25.4343 46.4169C25.135 46.3118 24.8357 46.1909 24.5363 46.0542L24.0165 45.8176H24.0401C23.8983 45.7493 23.7539 45.6757 23.6069 45.5968C23.7487 45.6757 23.8826 45.7546 24.0243 45.8097C20.2986 43.8778 17.2187 40.2347 16.8328 35.7951C16.8328 35.7951 18.2506 30.5512 26.9152 30.5512C27.8604 30.5512 30.5385 27.9253 30.6015 27.1604C30.5858 26.9239 25.2768 24.7948 23.1973 22.7603C22.0945 21.6563 21.5668 21.1438 21.102 20.7495C20.8505 20.5356 20.5875 20.3356 20.3143 20.1502C19.6173 17.7054 19.59 15.1179 20.2356 12.6589C17.4156 14.0258 14.9103 15.9646 12.8786 18.3523C11.6577 16.8225 11.7443 11.76 11.8152 10.7033C11.4559 10.8453 11.1126 11.025 10.7912 11.2395C9.7197 12.0035 8.71804 12.8611 7.79799 13.8023C6.75896 14.8646 5.81043 16.012 4.96231 17.2325C2.99981 20.0174 1.6077 23.1638 0.866334 26.4902L0.803319 26.6873C0.748181 26.9475 0.488244 28.3196 0.44886 28.6114C0.213904 30.0205 0.0639721 31.4424 -0.00012207 32.8696V33.0273C0.0121992 40.6755 2.88837 48.0412 8.06055 53.6701C13.2327 59.2991 20.325 62.7822 27.9373 63.4319C35.5495 64.0816 43.1284 61.8505 49.1777 57.1792C55.227 52.508 59.3071 45.736 60.6124 38.2002C60.6676 37.8059 60.707 37.4116 60.7542 37.0174C61.3865 31.8153 60.7096 26.5376 58.785 21.6642H58.7929ZM55.7603 23.2413V23.265V23.2413Z" fill="url(#paint11_linear_93_121)"/>
<defs>
<linearGradient id="paint0_linear_93_121" x1="54.7795" y1="10.2716" x2="2.47779" y2="57.4604" gradientUnits="userSpaceOnUse">
<stop offset="0.048" stop-color="#FFF44F"/>
<stop offset="0.111" stop-color="#FFE847"/>
<stop offset="0.225" stop-color="#FFC830"/>
<stop offset="0.368" stop-color="#FF980E"/>
<stop offset="0.401" stop-color="#FF8B16"/>
<stop offset="0.462" stop-color="#FF672A"/>
<stop offset="0.534" stop-color="#FF3647"/>
<stop offset="0.705" stop-color="#E31587"/>
</linearGradient>
<radialGradient id="paint1_radial_93_121" cx="0" cy="0" r="1" gradientUnits="userSpaceOnUse" gradientTransform="translate(53.4311 7.50902) scale(63.6428 63.7128)">
<stop offset="0.129" stop-color="#FFBD4F"/>
<stop offset="0.186" stop-color="#FFAC31"/>
<stop offset="0.247" stop-color="#FF9D17"/>
<stop offset="0.283" stop-color="#FF980E"/>
<stop offset="0.403" stop-color="#FF563B"/>
<stop offset="0.467" stop-color="#FF3750"/>
<stop offset="0.71" stop-color="#F5156C"/>
<stop offset="0.782" stop-color="#EB0878"/>
<stop offset="0.86" stop-color="#E50080"/>
</radialGradient>
<radialGradient id="paint2_radial_93_121" cx="0" cy="0" r="1" gradientUnits="userSpaceOnUse" gradientTransform="translate(30.1754 33.5566) scale(63.6428 63.7128)">
<stop offset="0.3" stop-color="#960E18"/>
<stop offset="0.351" stop-color="#B11927" stop-opacity="0.74"/>
<stop offset="0.435" stop-color="#DB293D" stop-opacity="0.343"/>
<stop offset="0.497" stop-color="#F5334B" stop-opacity="0.094"/>
<stop offset="0.53" stop-color="#FF3750" stop-opacity="0"/>
</radialGradient>
<radialGradient id="paint3_radial_93_121" cx="0" cy="0" r="1" gradientUnits="userSpaceOnUse" gradientTransform="translate(37.8483 -6.95004) scale(46.1065 46.1573)">
<stop offset="0.132" stop-color="#FFF44F"/>
<stop offset="0.252" stop-color="#FFDC3E"/>
<stop offset="0.506" stop-color="#FF9D12"/>
<stop offset="0.526" stop-color="#FF980E"/>
</radialGradient>
<radialGradient id="paint4_radial_93_121" cx="0" cy="0" r="1" gradientUnits="userSpaceOnUse" gradientTransform="translate(23.1358 50.1988) scale(30.3031 30.3365)">
<stop offset="0.353" stop-color="#3A8EE6"/>
<stop offset="0.472" stop-color="#5C79F0"/>
<stop offset="0.669" stop-color="#9059FF"/>
<stop offset="1" stop-color="#C139E6"/>
</radialGradient>
<radialGradient id="paint5_radial_93_121" cx="0" cy="0" r="1" gradientUnits="userSpaceOnUse" gradientTransform="translate(33.6532 28.3348) rotate(-13.606) scale(16.0675 18.8295)">
<stop offset="0.206" stop-color="#9059FF" stop-opacity="0"/>
<stop offset="0.278" stop-color="#8C4FF3" stop-opacity="0.064"/>
<stop offset="0.747" stop-color="#7716A8" stop-opacity="0.45"/>
<stop offset="0.975" stop-color="#6E008B" stop-opacity="0.6"/>
</radialGradient>
<radialGradient id="paint6_radial_93_121" cx="0" cy="0" r="1" gradientUnits="userSpaceOnUse" gradientTransform="translate(29.3719 4.90183) scale(21.8 21.824)">
<stop stop-color="#FFE226"/>
<stop offset="0.121" stop-color="#FFDB27"/>
<stop offset="0.295" stop-color="#FFC82A"/>
<stop offset="0.502" stop-color="#FFA930"/>
<stop offset="0.732" stop-color="#FF7E37"/>
<stop offset="0.792" stop-color="#FF7139"/>
</radialGradient>
<radialGradient id="paint7_radial_93_121" cx="0" cy="0" r="1" gradientUnits="userSpaceOnUse" gradientTransform="translate(46.5073 -8.94032) scale(93.0109 93.1133)">
<stop offset="0.113" stop-color="#FFF44F"/>
<stop offset="0.456" stop-color="#FF980E"/>
<stop offset="0.622" stop-color="#FF5634"/>
<stop offset="0.716" stop-color="#FF3647"/>
<stop offset="0.904" stop-color="#E31587"/>
</radialGradient>
<radialGradient id="paint8_radial_93_121" cx="0" cy="0" r="1" gradientUnits="userSpaceOnUse" gradientTransform="translate(38.6679 -3.7631) rotate(83.9826) scale(68.2442 44.7399)">
<stop stop-color="#FFF44F"/>
<stop offset="0.06" stop-color="#FFE847"/>
<stop offset="0.168" stop-color="#FFC830"/>
<stop offset="0.304" stop-color="#FF980E"/>
<stop offset="0.356" stop-color="#FF8B16"/>
<stop offset="0.455" stop-color="#FF672A"/>
<stop offset="0.57" stop-color="#FF3647"/>
<stop offset="0.737" stop-color="#E31587"/>
</radialGradient>
<radialGradient id="paint9_radial_93_121" cx="0" cy="0" r="1" gradientUnits="userSpaceOnUse" gradientTransform="translate(28.8584 12.9853) scale(58.0683 58.1323)">
<stop offset="0.137" stop-color="#FFF44F"/>
<stop offset="0.48" stop-color="#FF980E"/>
<stop offset="0.592" stop-color="#FF5634"/>
<stop offset="0.655" stop-color="#FF3647"/>
<stop offset="0.904" stop-color="#E31587"/>
</radialGradient>
<radialGradient id="paint10_radial_93_121" cx="0" cy="0" r="1" gradientUnits="userSpaceOnUse" gradientTransform="translate(44.1868 16.388) scale(63.5554 63.6253)">
<stop offset="0.094" stop-color="#FFF44F"/>
<stop offset="0.231" stop-color="#FFE141"/>
<stop offset="0.509" stop-color="#FFAF1E"/>
<stop offset="0.626" stop-color="#FF980E"/>
</radialGradient>
<linearGradient id="paint11_linear_93_121" x1="54.1539" y1="10.0194" x2="9.5954" y2="51.662" gradientUnits="userSpaceOnUse">
<stop offset="0.167" stop-color="#FFF44F" stop-opacity="0.8"/>
<stop offset="0.266" stop-color="#FFF44F" stop-opacity="0.634"/>
<stop offset="0.489" stop-color="#FFF44F" stop-opacity="0.217"/>
<stop offset="0.6" stop-color="#FFF44F" stop-opacity="0"/>
</linearGradient>
</defs>
</svg>
